# xmcd
#
# Track frame offsets:
#	150
#	17703
#	36221
#	55938
#	71035
#	86429
#	99490
#	114469
#	136809
#	150549
#	194903
#	214268
#	227694
#	273180
#
# Disc length: 4446 seconds
#
# Revision: 1
# Processed by: cddbd v1.5.2PL0 Copyright (c) Steve Scherf et al.
# Submitted via: audiograbber 1.83.01
#
DISCID=c1115c0e
DTITLE=Various Artist - African Scream Contest
DYEAR=2008
DGENRE=Africa
TTITLE0=Lokonon André and Les Volcans - Mi Kple Dogbekpo
TTITLE1=Picoby Band D'Abomey - Mi Ma Kpe Dji
TTITLE2=Gabo Brown and Orchestre Poly-Rythmo - It's A Vanity
TTITLE3=El Rego et Ses Commandos - Se Na Min
TTITLE4=Napo De Mi Amor et Ses Black Devils - Leki Santchi
TTITLE5=Orchestre Poly-Rythmo de Cotonou - Gbeti Ma Djro
TTITLE6=Roger Damawuzan - Wait For Me
TTITLE7=Ouinsou Corneille and Black Santiago - Vinon So Minsou
TTITLE8=Orchestre Super Jheevs des Paillotes - Ye Nan Lon An
TTITLE9=Tidiani Koné and Orchestre Poly-Rythmo - Djanfa Magni
TTITLE10=Discafric Band - Houiou Djin Nan Zon Aklumon
TTITLE11=Le Super Borgou de Parakou - Congolaise Benin Ye
TTITLE12=Vincent Ahehehinnou - Ou C'est Lui Ou C'est Moi
TTITLE13=Les Volcans de La Capital - Oya Ka Jojo
EXTD=
EXTT0=
EXTT1=
EXTT2=
EXTT3=
EXTT4=
EXTT5=
EXTT6=
EXTT7=
EXTT8=
EXTT9=
EXTT10=
EXTT11=
EXTT12=
EXTT13=
PLAYORDER=
